<svg xmlns="http://www.w3.org/2000/svg" width="16.211" height="27.788" viewBox="0 0 16.211 27.788"><defs><style>.a{fill:#000000;}</style></defs><g transform="translate(2.57 0)"><g transform="translate(0 0)"><path class="a" d="M163.7.924A1.16,1.16,0,0,0,162.546,0h-6.917a1.15,1.15,0,0,0-1.151.924l-.924,3.8h11.1Z" transform="translate(-153.554 0)"/></g></g><g transform="translate(2.542 23.06)"><g transform="translate(0)"><path class="a" d="M153.054,424.5l.946,3.8a1.154,1.154,0,0,0,1.151.924h6.917a1.15,1.15,0,0,0,1.151-.924l.924-3.8Z" transform="translate(-153.054 -424.504)"/></g></g><g transform="translate(0 5.826)"><g transform="translate(0)"><path class="a" d="M119.386,106.7h-9.259a3.469,3.469,0,0,0-3.473,3.458v9.224a3.469,3.469,0,0,0,3.473,3.458h9.264a3.469,3.469,0,0,0,3.473-3.458v-9.224A3.47,3.47,0,0,0,119.386,106.7Zm-8.1,9.219a1.151,1.151,0,1,1,1.156-1.151A1.154,1.154,0,0,1,111.283,115.923Zm3.473,0a1.151,1.151,0,1,1,1.156-1.151A1.154,1.154,0,0,1,114.757,115.923Zm3.473,0a1.151,1.151,0,1,1,1.156-1.151A1.154,1.154,0,0,1,118.23,115.923Z" transform="translate(-106.654 -106.704)"/></g></g></svg>