<svg xmlns="http://www.w3.org/2000/svg" width="24.662" height="23.12" viewBox="0 0 24.662 23.12"><defs><style>.a{fill:#000000;fill-rule:evenodd;}</style></defs><path class="a" d="M122.35,126.541H110.019v20.038H122.35a2.319,2.319,0,0,0,2.312-2.312V128.853A2.319,2.319,0,0,0,122.35,126.541ZM100,128.853v15.414a2.319,2.319,0,0,0,2.312,2.312V126.541A2.319,2.319,0,0,0,100,128.853ZM104.624,125h3.083a1.541,1.541,0,0,1,1.541,1.541v20.038a1.541,1.541,0,0,1-1.541,1.541h-3.083a1.541,1.541,0,0,1-1.541-1.541V126.541A1.541,1.541,0,0,1,104.624,125Zm8.478,3.853h8.477a.771.771,0,0,1,.771.771v2.312a.771.771,0,0,1-.771.771H113.1a.771.771,0,0,1-.771-.771v-2.312A.771.771,0,0,1,113.1,128.853Zm7.707,6.165h.771a.771.771,0,0,1,.771.771v.771a.771.771,0,0,1-.771.771h-.771a.771.771,0,0,1-.771-.771v-.771A.771.771,0,0,1,120.808,135.019Zm0,3.083h.771a.771.771,0,0,1,.771.771v.771a.771.771,0,0,1-.771.771h-.771a.771.771,0,0,1-.771-.771v-.771A.771.771,0,0,1,120.808,138.1Zm0,3.083h.771a.771.771,0,0,1,.771.771v.771a.771.771,0,0,1-.771.771h-.771a.771.771,0,0,1-.771-.771v-.771A.771.771,0,0,1,120.808,141.184Zm-3.853-6.165h.771a.771.771,0,0,1,.771.771v.771a.771.771,0,0,1-.771.771h-.771a.771.771,0,0,1-.771-.771v-.771A.771.771,0,0,1,116.955,135.019Zm0,3.083h.771a.771.771,0,0,1,.771.771v.771a.771.771,0,0,1-.771.771h-.771a.771.771,0,0,1-.771-.771v-.771A.771.771,0,0,1,116.955,138.1Zm0,3.083h.771a.771.771,0,0,1,.771.771v.771a.771.771,0,0,1-.771.771h-.771a.771.771,0,0,1-.771-.771v-.771A.771.771,0,0,1,116.955,141.184Zm-3.853-6.165h.771a.771.771,0,0,1,.771.771v.771a.771.771,0,0,1-.771.771H113.1a.771.771,0,0,1-.771-.771v-.771A.771.771,0,0,1,113.1,135.019Zm0,3.083h.771a.771.771,0,0,1,.771.771v.771a.771.771,0,0,1-.771.771H113.1a.771.771,0,0,1-.771-.771v-.771A.771.771,0,0,1,113.1,138.1Zm0,3.083h.771a.771.771,0,0,1,.771.771v.771a.771.771,0,0,1-.771.771H113.1a.771.771,0,0,1-.771-.771v-.771A.771.771,0,0,1,113.1,141.184Z" transform="translate(-100 -125)"/></svg>