<svg xmlns="http://www.w3.org/2000/svg" width="22.925" height="22.925" viewBox="0 0 22.925 22.925"><defs><style>.a{fill:#000000;}</style></defs><path class="a" d="M11.463,0A11.463,11.463,0,1,0,22.925,11.463,11.5,11.5,0,0,0,11.463,0ZM10.316,20.518a9.25,9.25,0,0,1-8.024-9.055A12.631,12.631,0,0,1,2.522,9.4l5.5,5.5v1.146a2.3,2.3,0,0,0,2.293,2.293Zm7.909-2.866a2.343,2.343,0,0,0-2.178-1.6H14.9V12.609a1.083,1.083,0,0,0-1.146-1.146H6.878V9.17H9.17a1.083,1.083,0,0,0,1.146-1.146V5.731h2.293A2.3,2.3,0,0,0,14.9,3.439V2.98a9.284,9.284,0,0,1,5.731,8.482A9.064,9.064,0,0,1,18.225,17.652Z"/></svg>