<svg xmlns="http://www.w3.org/2000/svg" width="15.112" height="25.844" viewBox="0 0 15.112 25.844">
  <path id="mobile_offers_tab" d="M263.4,75H251.26a1.5,1.5,0,0,0-1.487,1.52v22.8a1.5,1.5,0,0,0,1.487,1.52H263.4a1.5,1.5,0,0,0,1.487-1.52V76.52A1.5,1.5,0,0,0,263.4,75Zm-7.075,1.247h2.233a.38.38,0,0,1,0,.76h-2.233a.38.38,0,0,1,0-.76Zm1.121,23.288a.76.76,0,1,1,.744-.76A.752.752,0,0,1,257.444,99.535Zm5.654-2.741H251.487V78.044H263.1Z" transform="translate(-249.773 -75)" fill="#fff" fill-rule="evenodd"/>
</svg>
